<svg width="162" height="44" viewBox="0 0 162 44" fill="none" xmlns="http://www.w3.org/2000/svg">
<path d="M59.6429 32.3826L63.691 12.1421H67.5656L76.269 26.802L74.7365 26.7152L77.628 12.1421H82.2544L78.2063 32.3826H74.3606L65.6283 17.7227L67.1897 17.8094L64.2693 32.3826H59.6429ZM89.0094 32.6139C87.8143 32.6139 86.7059 32.344 85.6842 31.8043C84.6626 31.2452 83.8433 30.4453 83.2264 29.4043C82.6096 28.3634 82.3012 27.1104 82.3012 25.6454C82.3012 24.3346 82.5132 23.1298 82.9373 22.031C83.3807 20.9322 83.9975 19.9781 84.7879 19.1684C85.5782 18.3588 86.4938 17.7323 87.5348 17.289C88.5757 16.8263 89.6938 16.595 90.8889 16.595C92.1804 16.595 93.2889 16.836 94.2141 17.3179C95.1394 17.7998 95.8237 18.5516 96.2671 19.5732C96.7297 20.5756 96.8936 21.8768 96.7586 23.4768C96.6623 25.308 96.2864 26.9176 95.631 28.3056C94.9756 29.6742 94.0888 30.7344 92.9708 31.4862C91.872 32.238 90.5516 32.6139 89.0094 32.6139ZM90.3974 28.8839C91.2841 28.8839 92.0648 28.6718 92.7395 28.2477C93.4334 27.8044 93.9732 27.2068 94.3587 26.455C94.7635 25.6839 94.9659 24.7876 94.9659 23.7659C94.9659 22.7057 94.6479 21.8672 94.0117 21.2503C93.3949 20.6335 92.5274 20.325 91.4094 20.325C90.5419 20.325 89.7612 20.5467 89.0673 20.9901C88.3733 21.4142 87.8239 22.0117 87.4191 22.7828C87.0336 23.5346 86.8408 24.4213 86.8408 25.443C86.8408 26.5032 87.1492 27.3417 87.7661 27.9586C88.4022 28.5754 89.2793 28.8839 90.3974 28.8839ZM93.4913 32.3826L94.0985 29.2887L95.1105 24.6623L95.7177 20.0359L96.3538 16.8263H100.865L97.7707 32.3826H93.4913ZM107.556 32.6139C106.438 32.6139 105.484 32.3922 104.694 31.9488C103.903 31.4862 103.335 30.8308 102.988 29.9826C102.66 29.1152 102.612 28.0935 102.843 26.9176L105.532 13.3854H110.043L107.354 26.8887C107.238 27.5441 107.306 28.0646 107.556 28.4501C107.807 28.8357 108.27 29.0284 108.944 29.0284C109.253 29.0284 109.561 28.9802 109.87 28.8839C110.197 28.7875 110.496 28.6525 110.766 28.479L111.431 31.6886C110.872 32.0356 110.255 32.2765 109.58 32.4115C108.906 32.5464 108.231 32.6139 107.556 32.6139ZM101.687 20.6431L102.381 17.1733H113.166L112.472 20.6431H101.687ZM119.717 32.6139C118.445 32.6139 117.346 32.344 116.421 31.8043C115.496 31.2452 114.84 30.4356 114.455 29.3754C114.069 28.3152 114.031 27.0044 114.339 25.443L116.045 16.8263H120.556L118.907 25.1538C118.676 26.2912 118.763 27.1682 119.168 27.7851C119.592 28.4019 120.334 28.7104 121.394 28.7104C122.512 28.7104 123.447 28.3827 124.199 27.7273C124.97 27.0719 125.481 26.0695 125.731 24.7201L127.322 16.8263H131.832L128.739 32.3826H124.459L125.327 27.9875L125.963 29.3176C125.23 30.4549 124.315 31.2934 123.216 31.8332C122.117 32.3537 120.951 32.6139 119.717 32.6139ZM132.195 32.3826L135.288 16.8263H139.568L138.672 21.2503L138.267 19.9781C138.961 18.7251 139.867 17.848 140.985 17.3468C142.103 16.8456 143.443 16.595 145.004 16.595L144.194 20.7588C144.002 20.7395 143.818 20.7298 143.645 20.7298C143.491 20.7106 143.327 20.7009 143.153 20.7009C141.823 20.7009 140.734 21.0286 139.886 21.684C139.057 22.3394 138.498 23.3997 138.209 24.8647L136.705 32.3826H132.195ZM151.968 32.6139C150.349 32.6139 148.942 32.3247 147.747 31.7464C146.571 31.1681 145.655 30.3585 145 29.3176C144.344 28.2766 144.017 27.0526 144.017 25.6454C144.017 23.9105 144.402 22.3684 145.173 21.019C145.963 19.6504 147.043 18.5709 148.412 17.7805C149.8 16.9902 151.39 16.595 153.183 16.595C154.705 16.595 156.016 16.8842 157.115 17.4625C158.214 18.0215 159.062 18.8118 159.66 19.8335C160.276 20.8359 160.585 22.0407 160.585 23.4478C160.585 23.8527 160.556 24.2575 160.498 24.6623C160.459 25.0671 160.402 25.4526 160.325 25.8189H147.457L147.92 23.1876H158.214L156.363 23.9972C156.517 23.1298 156.469 22.4069 156.219 21.8286C155.968 21.231 155.563 20.778 155.004 20.4696C154.445 20.1419 153.77 19.9781 152.98 19.9781C151.997 19.9781 151.159 20.219 150.465 20.7009C149.79 21.1636 149.279 21.8093 148.932 22.6382C148.585 23.4671 148.412 24.402 148.412 25.443C148.412 26.6381 148.739 27.5345 149.395 28.1321C150.069 28.7104 151.081 28.9995 152.431 28.9995C153.221 28.9995 153.983 28.8742 154.715 28.6236C155.448 28.373 156.074 28.0164 156.595 27.5538L158.474 30.532C157.568 31.2452 156.546 31.7754 155.409 32.1223C154.291 32.45 153.144 32.6139 151.968 32.6139Z" fill="#3685FB"/>
<rect x="19.6174" width="16.9251" height="38.3944" rx="8.46255" transform="rotate(30 19.6174 0)" stroke="#3685FB" stroke-width="3.50571"/>
<rect x="37.8889" y="2.10913" width="16.9251" height="38.3944" rx="8.46255" transform="rotate(30 37.8889 2.10913)" stroke="#3685FB" stroke-width="3.50571"/>
</svg>
